# xmcd CD database file generated by LOLA_Freedb v0.9beta0
# 
# Track frame offsets:
#      150
#      13461
#      30848
#      47615
#      60695
#      78416
#      92191
#      106672
#      121560
#      134606
# 
# Disc length: 1972 seconds
# 
# Revision: 0 
# Processed by: cddbd v1.5.1PL2 Copyright (c) Steve Scherf et al.
# Submitted via: LOLA_Freedb v0.9beta0
# 
DISCID=7607b20a
DTITLE=ABBA - arrival
DYEAR=1976
DGENRE=
TTITLE0=ABBA - when i kissed the teacher
TTITLE1=ABBA - dancing Queen
TTITLE2=my love my live
TTITLE3=dum dum diddle
TTITLE4=knowing me knowing you
TTITLE5=ABBA - money, money, money
TTITLE6=ABBA - that's me
TTITLE7=ABBA - why did it have to be me
TTITLE8=ABBA - tiger
TTITLE9=ABBA - arrival
EXTD=
EXTT0=
EXTT1=
EXTT2=
EXTT3=
EXTT4=
EXTT5=
EXTT6=
EXTT7=
EXTT8=
EXTT9=
PLAYORDER=
